<svg id="svg5028" fill="rgb(255,255,255)" height="512" viewBox="0 0 16.933333 16.933334" width="512" xmlns="http://www.w3.org/2000/svg" xmlns:svg="http://www.w3.org/2000/svg"><g id="layer1" transform="translate(0 -280.067)"><path id="path5744" d="m9.6947422 290.71376c1.3204818.0593 2.7200568.21511 4.3573568.46147.513749-.81537.910158-1.68019 1.155485-2.58899.496621-1.83977.604968-3.37701.623219-4.90616.0027-.18112-.1733-.31134-.345718-.2558-.230788.0738-.47289.11204-.715201.11317-1.224129-.00079-2.244878-.92648-2.367298-2.14457-.01455-.13453-.128241-.2364-.263549-.23616l-7.4372711-.002c-.1356095.0008-.248748.10379-.262001.23875-.1225126 1.21897-1.1437249 2.14449-2.3688463 2.14457-.2536931-.00079-.5056875-.0435-.7462096-.12351-.1699948-.0563-.34565166.069-.34778156.24805-.014949 1.50121.046654 3.13447.55655626 4.94544.2550451.90583.6636068 1.76588 1.1890745 2.5771.5377048-.0805 1.0536106-.15226 1.6058463-.22014 1.0061389-.12201 1.886921-.20535 2.8272158-.25012.2510578-.0103.410456-.0171.568698-.0212.2215172-.006.4423649-.009.6630088-.009.2161491-.00027.4324381.002.6539651.007.219043.005.435473.0127.65345.0225zm-1.2748581-8.49974c2.1696889 0 3.9336109 1.82325 3.9336109 4.0659 0 2.24264-1.763922 4.06797-3.9336109 4.06797-2.1696892 0-3.9356771-1.82533-3.9356771-4.06797 0-2.24265 1.7659879-4.0659 3.9356771-4.0659zm0 .54725c-.101682 0-.2018771.007-.3012731.0155l.5136622.23461.574127-.15245c-.25273-.0616-.515273-.0977-.7865161-.0977zm-.2433955 1.94097.1441768-1.23507-1.0697025-.48989c-.4627748.17439-.8794644.44625-1.223182.79633l-.018097 1.43402.9252664.41212zm1.8872224-1.50482-1.2092278.32143c-.0493.40425-.09939.80842-.147277 1.21284l1.207677.91726 1.0598838-.33125.171048-1.14205c-.289177-.39997-.656458-.7357-1.082104-.97823zm-4.573365 1.29088c-.2329286.40617-.389345.86424-.4480322 1.35495l.4371816-.55035zm6.076633.44752-.07855.51934.311607.41807c-.03644-.3283-.115705-.64323-.23306-.93741zm-4.2839777 1.10329v.00053l.4258151 1.38286 1.4045648.008.441317-1.37717-1.1327477-.85964zm-1.4598571-.3173-.7823809.98444c.063862.54745.2483485 1.0555.5260658 1.49552l1.1487653.26613.5105638-.81649-.4681882-1.51463-.1395253-.062zm5.2885658.12455-1.03818.32607-.4712888 1.47123.6407858.77153 1.018027-.19534c.275024-.43052.458676-.92799.528651-1.46347zm-3.4514684 2.12131c-.1693413.26998-.3383836.54015-.5074629.81029l.5601705.94619c.2280867.0496.4643967.0765.7069349.0765.3131501 0 .6150241-.0472.9027871-.12868l.499195-.91932c-.213368-.25827-.42658-.51665-.640271-.77464zm3.0489074.91467-.390673.0754-.20257.37311c.213778-.1272.412088-.27805.593243-.44856zm-4.5645784.0139c.2336086.21711.4959668.40053.781349.54467l-.2495973-.42168zm2.2427565 2.3151c-1.7803071.003-3.5492584.18312-5.828067.53123-.1616789.0247-.2624138.18878-.2113571.34417l.5296825 1.5875c.040793.12216.1636184.19721.2909385.17777 4.5821892-.70546 5.9277572-.70322 10.501686 0 .128032.0205.252087-.0547.293005-.17777l.529682-1.5875c.05106-.15539-.04968-.31942-.211354-.34417-2.322082-.35958-4.113906-.53408-5.8942159-.53123zm-6.3887561 1.50068-1.36322596.35916c-.2432315.0665-.2644722.4032-.031522.49971l.89865466.36535-.60151436.76171c-.1565645.19872.02826.48277.27336756.42013l2.8142988-.74259c.072289-.0188.1332891-.0672.1679495-.13333-.2978732.0435-.5775536.0825-.9079547.13333-.3821324.0586-.7509192-.16659-.8733313-.5333zm12.84056.01-.373621 1.12035c-.122539.36758-.492551.593-.875398.5333-.347223-.0534-.642535-.0948-.953947-.14005.03385.0694.09633.12056.171048.14005l2.814299.74207c.24566.0649.432713-.22005.275436-.41961l-.60358-.76171.898652-.36536c.233997-.0961.212685-.43426-.03152-.50022zm-6.4166619 1.12706c-.951783-.00018-1.9271165.0838-3.1186729.23617.9021657.78041 1.9080983 1.49038 2.9817299 2.11666.082648.0485.1850361.0485.2676841 0 1.073224-.62605 2.0723728-1.33683 2.9636428-2.11873-1.179531-.15033-2.1485038-.23392-3.0943839-.2341z" font-variant-ligatures="normal" font-variant-position="normal" font-variant-caps="normal" font-variant-numeric="normal" font-variant-alternates="normal" font-feature-settings="normal" text-indent="0" text-align="start" text-decoration-line="none" text-decoration-style="solid" text-decoration-color="rgb(0,0,0)" text-transform="none" text-orientation="mixed" white-space="normal" shape-padding="0" isolation="auto" mix-blend-mode="normal" solid-color="rgb(0,0,0)" solid-opacity="1" vector-effect="none"/></g></svg>